<?xml version="1.0" encoding="utf-8"?>
<svg width="485" height="485" viewBox="0 0 485 485" fill="none" xmlns="http://www.w3.org/2000/svg">
  <g>
    <g>
      <g>
        <path d="M267.862 0.0302602C285.592 -0.0379428 303.321 0.140316 321.046 0.564847C321.046 0.564847 325.74 0.734612 325.74 0.734612C331.181 0.928914 336.548 1.17179 343.033 1.46325C368.876 2.67764 386.509 6.75802 401.98 12.7572C418.01 18.9263 431.514 27.2814 445.018 40.7855C457.366 52.9199 466.922 67.5981 473.022 83.7994C479.021 99.2709 483.102 116.928 484.316 142.77C484.608 149.231 484.851 154.623 485.045 160.063C485.045 160.063 485.191 164.775 485.191 164.775C485.622 182.486 485.809 200.207 485.749 217.927C485.749 217.927 485.774 236.036 485.774 236.036C485.774 236.036 485.774 267.853 485.774 267.853C485.834 285.565 485.647 303.287 485.215 321.004C485.215 321.004 485.069 325.731 485.069 325.731C484.875 331.172 484.632 336.539 484.341 343.024C483.126 368.867 478.997 386.5 473.022 401.971C466.942 418.19 457.383 432.88 445.018 445.009C432.873 457.355 418.188 466.911 401.98 473.013C386.509 479.012 368.876 483.093 343.033 484.307C336.548 484.599 331.181 484.842 325.74 485.036C325.74 485.036 321.028 485.182 321.028 485.182C303.306 485.614 285.579 485.8 267.851 485.74C267.851 485.74 249.743 485.765 249.743 485.765C249.743 485.765 217.95 485.765 217.95 485.765C200.228 485.824 182.506 485.638 164.789 485.206C164.789 485.206 160.072 485.06 160.072 485.06C154.308 484.851 148.545 484.608 142.783 484.332C116.937 483.117 99.3033 478.988 83.8075 473.013C67.5998 466.926 52.9191 457.368 40.7936 445.009C28.4321 432.872 18.867 418.185 12.7653 401.971C6.76614 386.5 2.68577 368.867 1.47137 343.024C1.20113 337.267 0.958572 331.511 0.743623 325.754C0.743623 325.754 0.621293 321.019 0.621293 321.019C0.173445 303.3 -0.0289055 285.576 0.0138995 267.852C0.0138995 267.852 0.0140865 217.917 0.0140865 217.917C-0.0539205 200.205 0.124342 182.488 0.548313 164.775C0.548313 164.775 0.718438 160.063 0.718438 160.063C0.91274 154.623 1.15562 149.231 1.44707 142.77C2.66147 116.903 6.74184 99.2952 12.741 83.7994C18.8463 67.5902 28.4301 52.916 40.8178 40.8098C52.935 28.4412 67.6065 18.8674 83.8075 12.7572C99.3032 6.75802 116.912 2.67765 142.779 1.46325C142.779 1.46325 160.072 0.734616 160.072 0.734616C160.072 0.734616 164.784 0.613176 164.784 0.613176C182.5 0.16515 200.221 -0.0371998 217.943 0.00560522C217.943 0.00560522 267.862 0.00597423 267.862 0.00597423C267.862 0.00597423 267.862 0.0302602 267.862 0.0302602ZM242.894 121.47C199.103 120.85 158.371 143.858 136.295 181.682C114.218 219.506 114.218 266.287 136.294 304.112C158.37 341.936 199.102 364.944 242.893 364.325C309.963 364.325 364.333 309.955 364.333 242.886C364.334 175.816 309.964 121.446 242.895 121.445C242.895 121.445 242.894 121.47 242.894 121.47ZM242.894 170.045C269.238 169.56 293.792 183.335 307.109 206.071C320.426 228.807 320.431 256.961 307.121 279.701C293.812 302.442 269.263 316.225 242.919 315.749C216.887 315.749 192.833 301.861 179.817 279.317C166.801 256.773 166.801 228.997 179.816 206.453C192.832 183.909 216.887 170.021 242.918 170.021C242.918 170.021 242.894 170.045 242.894 170.045ZM370.406 85.0381C354.124 85.6898 341.26 99.0788 341.26 115.373C341.26 131.668 354.124 145.057 370.406 145.709C387.173 145.709 400.766 132.116 400.766 115.349C400.766 98.5822 387.173 84.9896 370.406 84.9895C370.406 84.9895 370.406 85.0381 370.406 85.0381Z" fill="#B69DFF" fill-rule="evenodd" transform="translate(-0.394 -0.385)" />
      </g>
    </g>
  </g>
</svg>