<?xml version="1.0" encoding="UTF-8"?>
<svg width="332px" height="332px" viewBox="0 0 332 332" version="1.1" xmlns="http://www.w3.org/2000/svg" xmlns:xlink="http://www.w3.org/1999/xlink">
    <!-- Generator: Sketch 53.2 (72643) - https://sketchapp.com -->
    <title>iconos_fondo-19</title>
    <desc>Created with Sketch.</desc>
    <g id="Page-1" stroke="none" stroke-width="1" fill="none" fill-rule="evenodd">
        <g id="iconos_fondo-19" transform="translate(2.000000, 2.000000)">
            <g id="Capa_1">
                <rect id="Rectangle" stroke="#FFFFFF" stroke-width="3" opacity="0.01" x="0" y="0" width="328" height="328" rx="14.96"></rect>
                <g id="Group" opacity="0.25" transform="translate(15.000000, 16.000000)" fill="#FFFFFF" fill-rule="nonzero">
                    <rect id="Rectangle" x="0.34" y="0.31" width="297" height="294.3" rx="11.8"></rect>
                </g>
                <path d="M300.53,18 C305.389448,18.0054971 309.328984,21.9405616 309.34,26.8 L309.34,300.51 C309.328984,305.369438 305.389448,309.304503 300.53,309.31 L27.14,309.31 C22.2821787,309.304489 18.3455109,305.367821 18.34,300.51 L18.34,26.82 C18.3455109,21.9621787 22.2821787,18.0255109 27.14,18.02 L300.53,18.02 L300.53,18 Z M300.53,15.02 L27.14,15.02 C20.62304,15.02 15.34,20.30304 15.34,26.82 L15.34,300.51 C15.34,307.02696 20.62304,312.31 27.14,312.31 L300.53,312.31 C303.661287,312.312654 306.665233,311.070614 308.880325,308.857398 C311.095418,306.644181 312.340001,303.641288 312.34,300.51 L312.34,26.82 C312.345314,23.6852481 311.103077,20.6772129 308.887407,18.4596675 C306.671738,16.2421222 303.664755,14.9973389 300.53,15 L300.53,15.02 Z" id="Shape" fill="#FFFFFF" fill-rule="nonzero"></path>
                <polygon id="Path" fill="#FFFFFF" fill-rule="nonzero" points="249.79 119.15 254.75 113.06 259.71 115.67 267.15 108.72 275.42 119.15"></polygon>
                <ellipse id="Oval" fill="#FFFFFF" fill-rule="nonzero" cx="253.1" cy="106.98" rx="2.48" ry="2.61"></ellipse>
                <path d="M275.81,90.15 C281.496248,90.1555126 286.104487,94.763752 286.11,100.45 L286.11,123.82 C286.104487,129.506248 281.496248,134.114487 275.81,134.12 L247.71,134.12 C242.023752,134.114487 237.415513,129.506248 237.41,123.82 L237.41,100.45 C237.415513,94.763752 242.023752,90.1555126 247.71,90.15 L275.81,90.15 L275.81,90.15 Z M275.81,88.65 L247.71,88.65 C241.19304,88.65 235.91,93.93304 235.91,100.45 L235.91,123.82 C235.91,130.33696 241.19304,135.62 247.71,135.62 L275.81,135.62 C282.32696,135.62 287.61,130.33696 287.61,123.82 L287.61,100.45 C287.61,93.93304 282.32696,88.65 275.81,88.65 L275.81,88.65 Z" id="Shape" fill="#FFFFFF" fill-rule="nonzero"></path>
                <path d="M237.61,96.31 C237.61,96.31 240.61,89.31 246.61,89.31 C249.18,89.31 273.88,89.77 273.88,89.77 L255.68,135.07 L244.61,134.31 C241.112864,132.628292 238.291708,129.807136 236.61,126.31 L237.61,96.31 Z" id="Path" fill="#FFFFFF" fill-rule="nonzero" opacity="0.4"></path>
                <path d="M256,134.25 L273.77,90 C273.77,90 283.61,87.27 286.61,99.27 L286.61,124.27 C286.61,124.27 285.61,133.27 276.61,135.27 L255.61,135.27 L256,134.25 Z" id="Path" fill="#FFFFFF" fill-rule="nonzero" opacity="0.25"></path>
                <polygon id="Path" fill="#FFFFFF" fill-rule="nonzero" points="249.79 119.15 254.75 113.06 259.71 115.67 267.15 108.72 275.42 119.15"></polygon>
                <ellipse id="Oval" fill="#FFFFFF" fill-rule="nonzero" cx="253.1" cy="106.98" rx="2.48" ry="2.61"></ellipse>
                <path d="M275.81,90.15 C281.496248,90.1555126 286.104487,94.763752 286.11,100.45 L286.11,123.82 C286.104487,129.506248 281.496248,134.114487 275.81,134.12 L247.71,134.12 C242.023752,134.114487 237.415513,129.506248 237.41,123.82 L237.41,100.45 C237.415513,94.763752 242.023752,90.1555126 247.71,90.15 L275.81,90.15 L275.81,90.15 Z M275.81,88.65 L247.71,88.65 C241.19304,88.65 235.91,93.93304 235.91,100.45 L235.91,123.82 C235.91,130.33696 241.19304,135.62 247.71,135.62 L275.81,135.62 C282.32696,135.62 287.61,130.33696 287.61,123.82 L287.61,100.45 C287.61,93.93304 282.32696,88.65 275.81,88.65 L275.81,88.65 Z" id="Shape" fill="#FFFFFF" fill-rule="nonzero"></path>
                <path d="M237.61,96.31 C237.61,96.31 240.61,89.31 246.61,89.31 C249.18,89.31 273.88,89.77 273.88,89.77 L255.68,135.07 L244.61,134.31 C241.112864,132.628292 238.291708,129.807136 236.61,126.31 L237.61,96.31 Z" id="Path" fill="#FFFFFF" fill-rule="nonzero" opacity="0.4"></path>
                <path d="M256,134.25 L273.77,90 C273.77,90 283.61,87.27 286.61,99.27 L286.61,124.27 C286.61,124.27 285.61,133.27 276.61,135.27 L255.61,135.27 L256,134.25 Z" id="Path" fill="#FFFFFF" fill-rule="nonzero" opacity="0.15"></path>
                <polygon id="Path" fill="#FFFFFF" fill-rule="nonzero" points="249.79 178.15 254.75 172.06 259.71 174.67 267.15 167.72 275.42 178.15"></polygon>
                <ellipse id="Oval" fill="#FFFFFF" fill-rule="nonzero" cx="253.1" cy="165.98" rx="2.48" ry="2.61"></ellipse>
                <path d="M275.81,149.15 C281.496248,149.155513 286.104487,153.763752 286.11,159.45 L286.11,182.82 C286.104487,188.506248 281.496248,193.114487 275.81,193.12 L247.71,193.12 C242.023752,193.114487 237.415513,188.506248 237.41,182.82 L237.41,159.45 C237.415513,153.763752 242.023752,149.155513 247.71,149.15 L275.81,149.15 L275.81,149.15 Z M275.81,147.65 L247.71,147.65 C244.580445,147.65 241.579069,148.893211 239.36614,151.10614 C237.153211,153.319069 235.91,156.320445 235.91,159.45 L235.91,182.82 C235.91,189.33696 241.19304,194.62 247.71,194.62 L275.81,194.62 C282.32696,194.62 287.61,189.33696 287.61,182.82 L287.61,159.45 C287.61,156.320445 286.366789,153.319069 284.15386,151.10614 C281.940931,148.893211 278.939555,147.65 275.81,147.65 Z" id="Shape" fill="#FFFFFF" fill-rule="nonzero"></path>
                <path d="M237.61,155.31 C237.61,155.31 240.61,148.31 246.61,148.31 C249.18,148.31 273.88,148.77 273.88,148.77 L255.68,194.07 L244.61,193.31 C241.112864,191.628292 238.291708,188.807136 236.61,185.31 L237.61,155.31 Z" id="Path" fill="#FFFFFF" fill-rule="nonzero" opacity="0.4"></path>
                <path d="M256,193.25 L273.77,149 C273.77,149 283.61,146.27 286.61,158.27 L286.61,183.27 C286.61,183.27 285.61,192.27 276.61,194.27 L255.61,194.27 L256,193.25 Z" id="Path" fill="#FFFFFF" fill-rule="nonzero" opacity="0.15"></path>
                <polygon id="Path" fill="#FFFFFF" fill-rule="nonzero" points="249.79 239.06 254.75 232.97 259.71 235.58 267.15 228.63 275.42 239.06"></polygon>
                <ellipse id="Oval" fill="#FFFFFF" fill-rule="nonzero" cx="253.1" cy="226.89" rx="2.48" ry="2.61"></ellipse>
                <path d="M275.81,210.05 C281.497865,210.06102 286.104499,214.672127 286.11,220.36 L286.11,243.73 C286.104487,249.416248 281.496248,254.024487 275.81,254.03 L247.71,254.03 C242.023752,254.024487 237.415513,249.416248 237.41,243.73 L237.41,220.36 C237.415501,214.672127 242.022135,210.06102 247.71,210.05 L275.81,210.05 L275.81,210.05 Z M275.81,208.55 L247.71,208.55 C244.578712,208.549999 241.575819,209.794582 239.362602,212.009675 C237.149386,214.224767 235.907346,217.228713 235.91,220.36 L235.91,243.73 C235.91,246.859555 237.153211,249.860931 239.36614,252.07386 C241.579069,254.286789 244.580445,255.53 247.71,255.53 L275.81,255.53 C282.324675,255.524486 287.604486,250.244675 287.61,243.73 L287.61,220.36 C287.610002,213.84142 282.328577,208.55552 275.81,208.55 L275.81,208.55 Z" id="Shape" fill="#FFFFFF" fill-rule="nonzero"></path>
                <path d="M237.61,216.22 C237.61,216.22 240.61,209.22 246.61,209.22 C249.18,209.22 273.88,209.68 273.88,209.68 L255.68,255 L244.61,254.24 C241.112864,252.558292 238.291708,249.737136 236.61,246.24 L237.61,216.22 Z" id="Path" fill="#FFFFFF" fill-rule="nonzero" opacity="0.4"></path>
                <path d="M256,254.16 L273.77,210 C273.77,210 283.61,207.27 286.61,219.27 L286.61,244.27 C286.61,244.27 285.61,253.27 276.61,255.27 L255.61,255.27 L256,254.16 Z" id="Path" fill="#FFFFFF" fill-rule="nonzero" opacity="0.15"></path>
                <polygon id="Path" fill="#FFFFFF" fill-rule="nonzero" points="89.08 197.01 106.7 175.39 124.32 184.66 150.76 159.95 180.13 197.01"></polygon>
                <ellipse id="Oval" fill="#FFFFFF" fill-rule="nonzero" cx="100.83" cy="153.77" rx="8.81" ry="9.27"></ellipse>
                <path d="M211.63,91.65 C213.963905,91.65 216.20222,92.5771402 217.85254,94.2274603 C219.50286,95.8777805 220.43,98.1160949 220.43,100.45 L220.43,243.73 C220.424489,248.587821 216.487821,252.524489 211.63,252.53 L51.57,252.53 C46.7105522,252.524503 42.7710161,248.589438 42.76,243.73 L42.76,100.45 C42.7655184,95.5882771 46.7082739,91.6499969 51.57,91.65 L211.63,91.65 L211.63,91.65 Z M211.63,88.65 L51.57,88.65 C48.4387132,88.6473464 45.4347673,89.8893855 43.2196748,92.1026025 C41.0045822,94.3158194 39.7599989,97.318712 39.76,100.45 L39.76,243.73 C39.7655195,250.248577 45.0514204,255.530002 51.57,255.53 L211.63,255.53 C214.759555,255.53 217.760931,254.286789 219.97386,252.07386 C222.186789,249.860931 223.43,246.859555 223.43,243.73 L223.43,100.45 C223.43,93.93304 218.14696,88.65 211.63,88.65 Z" id="Shape" fill="#FFFFFF" fill-rule="nonzero"></path>
                <path d="M113.46,251.63 L175.16,91.34 L212.16,90.34 C212.16,90.34 222.16,93.11 222.16,101.34 C222.16,109.57 221.16,243.34 221.16,243.34 C221.16,243.34 220.55,252.16 212.16,253.34 C203.77,254.52 113.16,253.18 113.16,253.18 L113.46,251.63 Z" id="Path" fill="#FFFFFF" fill-rule="nonzero" opacity="0.2"></path>
                <path d="M175.16,91.34 L113.16,252.68 L56.09,253.56 C56.09,253.56 40.18,255.34 42.56,240.03 L42.18,101.34 C42.18,101.34 40.18,90.34 55.18,90.34 L175.16,91.34 Z" id="Path" fill="#FFFFFF" fill-rule="nonzero" opacity="0.4"></path>
                <path d="M134.75,40.59 L192.62,40.59 C193.448427,40.59 194.12,39.9184271 194.12,39.09 C194.12,38.2615729 193.448427,37.59 192.62,37.59 L134.75,37.59 C133.921573,37.59 133.25,38.2615729 133.25,39.09 C133.25,39.9184271 133.921573,40.59 134.75,40.59 L134.75,40.59 Z" id="Path" fill="#FFFFFF" fill-rule="nonzero"></path>
                <path d="M183.25,61.57 L207.58,61.57 C208.408427,61.57 209.08,60.8984271 209.08,60.07 C209.08,59.2415729 208.408427,58.57 207.58,58.57 L183.25,58.57 C182.421573,58.57 181.75,59.2415729 181.75,60.07 C181.75,60.8984271 182.421573,61.57 183.25,61.57 Z" id="Path" fill="#FFFFFF" fill-rule="nonzero"></path>
                <path d="M50.25,61.57 L173.12,61.57 C173.948427,61.57 174.62,60.8984271 174.62,60.07 C174.62,59.2415729 173.948427,58.57 173.12,58.57 L50.25,58.57 C49.4215729,58.57 48.75,59.2415729 48.75,60.07 C48.75,60.8984271 49.4215729,61.57 50.25,61.57 Z" id="Path" fill="#FFFFFF" fill-rule="nonzero"></path>
                <path d="M219.25,61.57 L277.12,61.57 C277.948427,61.57 278.62,60.8984271 278.62,60.07 C278.62,59.2415729 277.948427,58.57 277.12,58.57 L219.25,58.57 C218.421573,58.57 217.75,59.2415729 217.75,60.07 C217.75,60.8984271 218.421573,61.57 219.25,61.57 Z" id="Path" fill="#FFFFFF" fill-rule="nonzero"></path>
                <path d="M50.25,73.57 L126.87,73.57 L249.03,73.57 L277.12,73.57 C277.948427,73.57 278.62,72.8984271 278.62,72.07 C278.62,71.2415729 277.948427,70.57 277.12,70.57 L200.51,70.57 L78.35,70.57 L50.25,70.57 C49.4215729,70.57 48.75,71.2415729 48.75,72.07 C48.75,72.8984271 49.4215729,73.57 50.25,73.57 L50.25,73.57 Z" id="Path" fill="#FFFFFF" fill-rule="nonzero"></path>
            </g>
        </g>
    </g>
</svg>