<svg width="66" height="65" viewBox="0 0 66 65" fill="none" xmlns="http://www.w3.org/2000/svg">
<path d="M14.6656 51.0708V31.2243L40.0492 20.3478H44.363C50.5351 20.3478 53.6279 28.0704 49.263 32.5864L26.4949 56.1404C22.1299 60.6564 14.6656 57.459 14.6656 51.0708Z" fill="url(#paint0_linear_38_9)"/>
<g filter="url(#filter0_d_38_9)">
<path fill-rule="evenodd" clip-rule="evenodd" d="M14.6642 15.6019V36.7669C14.6642 40.6583 17.436 43.3666 20.5891 43.8668C20.6523 43.8768 20.7156 43.8859 20.7791 43.8941C22.7462 44.1498 24.8421 43.5458 26.4941 41.8367L40.0484 27.8132L49.2593 18.2826C53.6243 13.7666 50.5315 6.0439 44.3594 6.0439H23.9024C18.8004 6.0439 14.6642 10.3233 14.6642 15.6019Z" fill="url(#paint1_linear_38_9)"/>
</g>
<defs>
<filter id="filter0_d_38_9" x="10.6642" y="6.0439" width="44.6382" height="45.9065" filterUnits="userSpaceOnUse" color-interpolation-filters="sRGB">
<feFlood flood-opacity="0" result="BackgroundImageFix"/>
<feColorMatrix in="SourceAlpha" type="matrix" values="0 0 0 0 0 0 0 0 0 0 0 0 0 0 0 0 0 0 127 0" result="hardAlpha"/>
<feOffset dy="4"/>
<feGaussianBlur stdDeviation="2"/>
<feComposite in2="hardAlpha" operator="out"/>
<feColorMatrix type="matrix" values="0 0 0 0 0.0983116 0 0 0 0 0 0 0 0 0 0.737337 0 0 0 0.38 0"/>
<feBlend mode="normal" in2="BackgroundImageFix" result="effect1_dropShadow_38_9"/>
<feBlend mode="normal" in="SourceGraphic" in2="effect1_dropShadow_38_9" result="shape"/>
</filter>
<linearGradient id="paint0_linear_38_9" x1="49.9025" y1="39.3007" x2="14.6339" y2="39.3007" gradientUnits="userSpaceOnUse">
<stop stop-color="#9676F2"/>
<stop offset="1" stop-color="#377AFB"/>
</linearGradient>
<linearGradient id="paint1_linear_38_9" x1="27.356" y1="28.044" x2="27.356" y2="44.0196" gradientUnits="userSpaceOnUse">
<stop stop-color="#18CCF0"/>
<stop offset="1" stop-color="#01A9F6"/>
</linearGradient>
</defs>
</svg>
